<mxfile host="app.diagrams.net" modified="2024-02-09T14:16:12.564Z" agent="Mozilla/5.0 (X11; Linux x86_64; rv:109.0) Gecko/20100101 Firefox/115.0" etag="kx0WJf-eZISAzr-0Y5uX" version="23.1.2" type="github">
  <diagram name="Page-1" id="mNH2CRQtdClMF56qCHOm">
    <mxGraphModel dx="1658" dy="864" grid="1" gridSize="10" guides="1" tooltips="1" connect="1" arrows="1" fold="1" page="1" pageScale="1" pageWidth="827" pageHeight="1169" math="0" shadow="0">
      <root>
        <mxCell id="0" />
        <mxCell id="1" parent="0" />
        <mxCell id="i-FvbA_S1ePLVYv7-AD9-1" value="Start" style="ellipse;whiteSpace=wrap;html=1;" vertex="1" parent="1">
          <mxGeometry x="354" y="150" width="96" height="60" as="geometry" />
        </mxCell>
      </root>
    </mxGraphModel>
  </diagram>
</mxfile>
